<svg xmlns="http://www.w3.org/2000/svg" width="814.526" height="436.778" viewBox="0 0 814.526 436.778"><path d="M1054.456,433.349c-.654-.165-1.97-.412-1.724-1.312a12.745,12.745,0,0,1,.985-2.212,4.053,4.053,0,0,0-2.459-3.2c-.577,0-1.478,1.07-1.8.739s-1.885-2.79-1.724-3.282,1.562-1.389.662-2.374-.908-1.393-.246-1.474.408-1.724.408-1.724-.162.654-1.147-.081-1.72-1.97-2.628-1.886-2.213.162-1.635-.739a2.3,2.3,0,0,0,0-3.605l.246-24.184-6.27-6.024h-2.091l-.125,1.478-7.255,2.333-1.966-1.227v-3.811l-2.705-.618s-10.695,15.124-10.82,15.863a46.722,46.722,0,0,1-1.6,6.638c-.488.864-1.966,1.478-1.841,2.584a15.915,15.915,0,0,1-.061,2.644c0,.307-.246.614-.375,1.046a9.157,9.157,0,0,0-.3,1.417c0,.242.678,1.409.549,1.655s-1.966,2.031-1.966,2.031l-.061,1.534-3.876,3.258.19,3.876s-.553-.8-1.231-.8a1.831,1.831,0,0,0-1.171.492s.493,1.349.246,1.595a13.329,13.329,0,0,0-.92,1.357l-1.9-2.152-1.154,1.45-.565.7c-.493,0-1.97-1.171-1.97-1.171l-2.213,1.171-.924,4.364-26.267.206-20.825.161s-5.9,3.073-6.763,3.565-6.637,7.5-8.361,8.729-7.5,5.41-7.5,5.41l-5.168,9.346-27.664.367-6.145,3.076,2.087,4.425-.367,2.705,2.212,2.58-.121,2.83L874.365,478.9l-4.712,2.321L863.71,482.4l-10.166,2.019-16.23,10.166-4.425.161-5.41-3.113s-.105-.973-.25-2.12c-.117-.9-.262-1.914-.4-2.636-.331-1.639-.331-3.444.654-3.775a42.568,42.568,0,0,0,4.425-2.459l3.444-3.274s2.128-9.342,3.771-13.279a29.762,29.762,0,0,0,1.97-6.068l-5.9-34.754L820.1,413.594l2.459-3.444-1.639-2.293-3.932-.327-1.643,1.478-2.786-3.775v-6.064l-1.966.654-4.263.654-2.624-3.444-1.473-5.24-49.51-29.675-13.444,7.049-2.661-.052L731.083,369l-3.113-2.786-8.693.327-1.312-3.278-5.737,3.444-4.425.815v-1.142l-1.8-.493-.654-.824-3.609-1.8-.816-2.459-3.121.654v2.132h-1.308l-4.425-6.718-4.918-1.966-6.234,1.147-.327,1.312-4.259.492-.492-2.628-10.986-1.474-1.478-1.97-1.308-10.82L657.146,339l-.17,8.527L621.65,362.118H525.884L365.358,355.23H351.2l-91.777-7.7,4.425,3.444-.162,1.639-3.932.981,2.782,5.9s-.493,2.79-2.293,3.282-9.019.323-14.753-2.3-5.087-1.966-5.087-1.966l-.323,9.589c-.17,3.113,2.535,3.69,3.852,5.572s.573,7.13,1.881,8.773,1.151,3.525,1.151,5.083.408,1.966,1.639,1.389,1.558.662,2.051,1.07a3.5,3.5,0,0,0,1.308.573,8.451,8.451,0,0,1-3.113,1.147c-1.558.161-.654.985-.408,2.051s.162,1.886,2.047,1.393,2.132.654,2.132.654-1.643.492-1.643,1.227a8.75,8.75,0,0,1-.323,2.875c-.331.739-.166,2.459-.412,2.459s-.573-1.72-.739-4.51-.654-.9-.654-.9l.085,6.472c.981,1.151,5.079,1.8,5.9,1.478s4.259,1.151,4.1,1.312c-.133.133,2.136.812,2.087,1.058-.016.057-.145.089-.448.089-1.639,0-1.308-1.639-3.605-1.393s-2.543,0-4.058.121-2.745-1.841-2.7-.121.04,3.036.121,4.179-.573,2.3.085,4.591-1.474,21.806-1.8,26.889-1.72,18.358-2.091,19.181-1.021,1.966-2.334,4.918-.654,2.786-1.231,4.671-1.393,2.867.085,5.818-.331,7.546,1.635,10.5c.8,1.2,1.3,1.885,1.619,2.374a2.742,2.742,0,0,1,.513,1.881c0,1.478,1.312,1.232,1.558,4.142s.246,7.748-.246,9.593.493,3.65-.82,5.616-3.359,5.079-3.238,6.8-.86,4.179,1.106,5.325,7.215,5.576,7.623,8.688-.408,5.41.246,8.361-.489,4.344.739,6.27,4.183,6.189,5.656,6.682,2.79.489,2.951,2.132,2.212,3.032,2.334,4.712,1.6,2.5,3.076,3.811,4.1,3.605,4.1.658-.492-3.936,2.132-3.278,6.4.246,7.049.287,2.951,2.172.331,2.006-5.9-1.639-7.053-1.308a2.169,2.169,0,0,0-1.147,2.782c.327.985,2.951,4.429,3.113,5.41s.82,1.97-1.147,1.151a3.791,3.791,0,0,1-2.3-3.278c-.162-.824-1.308-2.79-1.8-.493s-.981,4.756-.166,5.741,1.151,2.62,1.8,4.425,1.72,3.113,3.565,3.359,3.973-.739,4.142,2.866,1.062,2.544-.452,3.157-2.665,1.6-1.026,3.9,5.576,4.918,6.064,7.376.985,1.8,2.624,4.1,3.278,2.374,3.771,4.3,2.374.121,2.584,2.091-1.518,3.44.735,3.686,2.253.246,2.584,2.705-.577,7.461,1.353,8.486,5.2,1.268,7.255,1.474,7.623.7,8.769,1.514,3.44,4.594,7.869,5.249,5.9-.331,6.068,1.639-.985,3.771,3.274,3.771,9.1,5.818,10.537,7.748,2.58,8.482,3.4,9.629a7.664,7.664,0,0,1,1.021,3.032l.036.169,34.023-3.694-1.312,4.017,52.215,18.935,29.255.266v0l11.688.089v-7.618H497.21l.012.008a58.255,58.255,0,0,0,3.811,5.285c.735.614,3.2.614,4.057,1.845a91.289,91.289,0,0,0,7.009,7.744c.614.371,4.671,1.97,5.9,3.569s4.922,7.99,4.8,8.85a6.263,6.263,0,0,0,.246,4.429c.985,1.841,3.936,5.41,4.671,5.41a2.9,2.9,0,0,1,2.212,1.72c.125.739,5.781,2.338,6.149,2.584s2.7,3.44,4.057,3.44a13.165,13.165,0,0,1,3.811,1.106l4.3-4.3s-.981-.367.367-3.072,2.463-5.41,2.463-5.41l4.057.246.735-1.966a11.257,11.257,0,0,0,2.705.86c1.106.121,5.164,0,5.535.246s1.352.735,1.352.735l1.474-1.1,3.444,3.686.86-.614.125,2.091a9.767,9.767,0,0,1,3.319,1.72,60.79,60.79,0,0,1,4.3,4.425l5.656,13.9s4.792,3.811,5.164,4.425a15.918,15.918,0,0,1,.735,3.2l4.922,3.565-.246,4.058,1.106.246.121,4.8c2.459,1.473,4.918,8.85,4.918,8.85,2.091.246,13.158,5.656,13.158,5.656,4.671.246,7.255.246,7.748.739s1.353,2.212,2.333,2.212.86-.493,1.724-.739a17.033,17.033,0,0,1,2.459-.367s-2.132-5.656-3.113-6.476-1.151-4.591-1.151-5.576-1.147-1.312-1.308-2.128-.662-1.8.162-1.966,1.474-2.79,1.312-3.609-2.79-.739-3.036-.82-.327-1.312.408-1.312,2.463.493,2.79.085,2.378-5.087,2.132-5.41-2.539-2.213-2.705-2.544-.081-.573.9-.654,2.128-.085,2.374.246.577,1.231,1.07.246,1.966-2.951,1.966-3.444-.331-.985-1.07-.246-1.8.573-1.8,0a2.785,2.785,0,0,1,1.643-1.8h1.97c.323,0,0,.824.323,1.066s1.643-.573,1.8-.981a26.161,26.161,0,0,0,.408-2.79s-.654-.492-.408-.82,1.066-1.308,1.393-.162.735,1.882,1.966,1.228,2.543-1.639,2.3-2.213-2.132-1.393-2.3-1.72-.985-2.051-.492-1.885a12.616,12.616,0,0,1,1.8,1.062c.408.246.9-.492,1.478-.492s.573.492,1.147.085,1.312-1.639,1.558-.492.246,1.312,1.147,1.066a2.98,2.98,0,0,1,2.213-.081c.573.327,1.72.161,1.643-.246s-.662-1.312,0-1.478,2.947.085,3.605-.408,1.389-1.474,2.047-1.474,2.951-2.212,3.525-3.69.412-1.966,1.312-1.966,1.066-.82,1.558-.985a1.565,1.565,0,0,0,1.308-1.8c-.162-1.312.331-1.966-.739-2.3s-1.635-1.062-1.227-1.227a1.189,1.189,0,0,0,.658-1.478c-.246-.735.246-.9.569-.489s.577.658,1.4-.165,1.554-.9,1.8-.735a3.289,3.289,0,0,1,0,2.374c-.323.658-1.555,1.89-.408,1.643a21.1,21.1,0,0,1,3.852-.246c.985,0,4.51-1.966,6.637-2.213.586-.069,1.438-.25,2.427-.472,2.612-.59,6.177-1.445,8.317-1.086,2.951.489,8.769,3.605,11.228,3.524s6.557-.085,5.987-.739-2.79-2.051-1.8-2.3,2.212-.489,2.54-1.635,1.231-1.97,1.724-1.066-.17,1.966.323,2.455,1.89-.161,2.544.577,1.227,1.885,1.72,1.885a.982.982,0,0,1,.985.82c0,.408.085.739.82.9s.9,1.147,1.232,1.147,1.635-.081,1.635-.081c.492.573,1.231,1.393.577,1.478s-2.543.569-2.212.981a6.244,6.244,0,0,0,2.782,1.231,25.471,25.471,0,0,1,2.951.654c.658.161,1.477.085.739-.577s-1.393-1.554-.815-1.389,1.72.408,1.72,1.227-.331,1.639.327,1.639.981-.9,1.639-1.308.9-.246,1.147-.985.654-1.312,2.213-.981,1.97.654,2.217,1.308-.412,1.966.327,2.051,1.8-.985,2.047-1.809-.985-1.55-.408-1.881,1.227.492,1.393-.085.573-.654-.492-1.308-2.786-2.951-1.639-2.213,1.231,1.393,2.213,1.393,2.3-.739,2.543.081.816.492,1.393.985.573,2.786,1.147,2.293.573-1.885,1.15-1.97a.8.8,0,0,0,.077-1.55c-.981-.492-2.782-2.136-1.881-2.212s.654-.985,1.72-1.07,2.459.162,2.951-.654-.162-1.89-.085-2.951-.408-.9-.493-1.643-.161-1.882-.816-.981-.166,2.3-1.227,2.786-2.051-.081-3.036-.735-1.146-1.724-.331-1.724.985-1.558,2.79-1.882a4.812,4.812,0,0,0,.634-.153,6.971,6.971,0,0,0,2.649-1.9,2.591,2.591,0,0,1,2.535-.824,6.644,6.644,0,0,0,2.184-.48c1.15-.384,2.326-.82,2.9-.581.981.408.981,1.231,2.951,1.062a17.84,17.84,0,0,0,3.23-.707,2.987,2.987,0,0,1,.949-.109c.985.081,1.393.9,2.047.816s1.72-1.966,1.643-3.359-.246-2.374.9-2.459,1.312,1.97,1.312,2.459-.412,1.97.161,2.3.408,2.132,1.558,2.293,3.323-.638,4.316-.654h.028a6.943,6.943,0,0,0,3.771-1.639c.408-.658.246-2.051,1.147-2.051s1.72-.488,1.966.246-.735,1.393-.82,1.966.412-.081,1.966-.081,4.595,0,5.087-.654,4.013-.9,4.671-.739,2.212,1.147,1.554,1.312a12.72,12.72,0,0,1-2.374-.081c-1.146,0-2.871-.331-2.951.081s.408.246,1.558.408a31.534,31.534,0,0,1,5.9,2.051c1.308.654,1.72,1.308,2.866,1.724s5,3.113,5.164,3.767.9,1.4.9,2.3-.408,1.558.658,1.558,2.867-.739,3.69-.739.408-.166,1.554-.493,4.263-2.3,5.576-2.378,2.539-.081,2.539-.739-.739-1.478-.492-1.639a12.436,12.436,0,0,1,2.3-1.227c.327,0,2.705,0,3.113.493a7.733,7.733,0,0,0,2.705,1.72c1.227.492,2.624,3.525,3.2,3.852a10.744,10.744,0,0,1,2.051,1.151,15.154,15.154,0,0,0,.327,2.62c.246.331,2.867,1.639,3.2,2.62a8.749,8.749,0,0,0,1.478,2.628c.489.569,3.028.077,3.359.654s3.278,6.722,2.051,10.82-2.382,7.954-2.136,8.688.085,3.117.9,3.278,2.782-.081,2.213-1.147-1.227-3.69-.493-3.606a1.628,1.628,0,0,1,1.308,1.72c0,.9.17,1.8.662,1.8s.816-1.966,1.143-1.393a2.346,2.346,0,0,1-.489,2.79c-.985.816-.985,2.047-1.639,2.293s-1.889.573-1.4,1.151a6.216,6.216,0,0,1,1.312,1.966c.085.492,1.316,3.444,1.724,4.425S838.707,750,839.611,750s.493-1.147.739-1.882,1.474-1.231,1.554-.739.573,2.867-.246,3.686-1.393,2.132-.246,2.705,3.363,2.951,3.69,4.429.327,4.671,2.051,5.571,4.118,1.534,4.611,2.027a35.279,35.279,0,0,1,2.58,4.122c.307.614.06,1.534.678,1.6s1.906,0,1.659.367-.8,1.171-.307,1.288,2.524.8,1.6,1.231-1.909.125-1.97-.493,0-.61-.614-.674-1.046,1.292-.674,1.6.246.678,1.966.86,5.471.065,5.9-.428,1.659-.618,2.152-.8,2.212-1.6,1.966-2.83,2.277-6.641,2.333-7.376,1.91-11.252,1.664-12.419-.864-6.27-1.538-6.888-1.413-.735-1.352-1.538-1.534-4.853-1.91-5.838-3.686-8.482-3.993-9.96a9.858,9.858,0,0,1-.06-3.811c.186-.307,1.046-2.334.985-1.409a7.294,7.294,0,0,1-.557,2.027s.618.981.921,0,.925-2.895-.363-3.629-2.459-1.538-2.459-1.1a9.369,9.369,0,0,0,.363,1.9,22.55,22.55,0,0,1,.129,3.319,10.8,10.8,0,0,1-1.05-2.762c0-.739-.182-3.755-.182-4.308a29.6,29.6,0,0,0-2.891-6.758,46.745,46.745,0,0,1-3.69-10.638c-.048-1.013-1.433-7.445-2.027-10.441-.121-.642-.214-1.126-.242-1.365-.19-1.353-1.171-4.792-.925-5.039s-.8-1.106-.553-1.534,1.72-.246,1.841-.868a5.617,5.617,0,0,1,.735-1.78c.492-.925,1.724-4.364,2.035-4.8s-.125-.86-.371-1.538a3.02,3.02,0,0,1,.739-2.329c.246,0,1.72-.622,1.781-1.171a10.33,10.33,0,0,1,.844-2.051c-.032.1-.072.331.573.085.8-.307,2.4-1.288,1.72-2.273a9.13,9.13,0,0,1-.634-1.082c-.392,0-.747,0-1.062.02.315-.016.67-.024,1.062-.02-.351-.694-.533-1.324-.291-1.441a2.073,2.073,0,0,1,1.663.367c.146.149.5.081.832-.073l-.694-1.659c-.307-.2-.549-.371-.569-.48s-.109-.674-.178-1.3v-.008c-.113-1.026-.19-2.245.117-2.015.492.367.985,1.966,1.72,2.148s1.231,1.542,1.91,1.357,1.841-1.171,1.348-1.906-3.012-1.106-2.58-1.845,1.906-.985,2.334-.428a2.227,2.227,0,0,0,2.891.364c1.106-.8,4.486-1.9,4.671-2.273a4.265,4.265,0,0,1,2.338-2.334c1.659-.674,2.83-4,4.118-4.057s1.292.489,1.906-.246,2.273-1.417,2.338-1.966a20.685,20.685,0,0,1,.492-3.323c.311-.981,2.334-5.164,5.531-7.065a11.711,11.711,0,0,1,3.363-1.216h0c3.2-.727,6.835-.816,7.271-1.126a6.347,6.347,0,0,0,1.292-2.576c.065-.311,1.167-.19,1.3-1.171s2.148-4.122,4.542-5.535a42.15,42.15,0,0,0,5.047-3.072,3.788,3.788,0,0,1,2.576-1.231c1.114,0,4.122-1.042,4.861-.492s1.966.682,1.966-.3a3.593,3.593,0,0,1,1.6-2.4c.428-.186.739-.981-.182-1.413s-.311-1.478-.8-1.534-1.11,1.106-1.845,1.106-1.845,1.538-3.876.735a6.821,6.821,0,0,1-3.068-2.523s-.129-1.72.981-.3,2.459,2.584,2.826,2.519,4-2.519,3.815-2.951-2.156.065-1.966-.246,2.083-.739,2.212-1.1.674-1.663.182-1.785-4.183-.739-4.857-1.05-2.4-1.9-1.906-1.837,1.906.8,2.705.981,2.152.921,2.519.553-.614-1.6-.121-1.845,1.413-.739,1.478-.182-.375,1.72-.19,1.966.985-.618,1.232-.618,1.534,1.538,2.58,1.659,2.035.06,2.463-.678,2.766-3.686,3.379-3.686,1.659-1.292,1.659-2.152-.246-3.375-1.042-3.565-1.72-.614-2.031,0a10.831,10.831,0,0,0-1.05,2.891c0,.614-.182,1.595-.363,1.478a6.932,6.932,0,0,1-.311-2.156,22.184,22.184,0,0,1,.557-2.213c.06-.367.117-1.042-.492-1.106a8.3,8.3,0,0,0-2.523.367c-.917.246-7.13,1.171-7,.739a8.549,8.549,0,0,0,.242-2.091c-.057-.367-.057-.86.864-.367s2.212.985,2.766.493a4.48,4.48,0,0,1,2.766-.985c.8.125.307-.549,1.041-.549s1.849-.8,1.417-1.3-.8-1.655-.186-.917.924,1.474,1.72,1.474.985-.246,1.232.246.925,1.841,1.292,1.413.311-.864-.428-2.337-2.77-3.876-2.77-4.861a1.1,1.1,0,0,1,.383-.941.105.105,0,0,1,.053-.032l.073-.032a.374.374,0,0,1,.117-.02.33.33,0,0,1,.137.024l.06.02.073.044a.9.9,0,0,1,.27.327c.432.8,1.232,1.781,1.357,1.413a1.433,1.433,0,0,0-.291-1.732l-.032-.032a1.577,1.577,0,0,0-.17-.137,3.364,3.364,0,0,1-1.167-3.016c.056-1.106.549-3.872-.553-3.872s-4.425-.311-4.49.246-.246,1.1-.674.985-1.538-.311-1.72-.678a8.257,8.257,0,0,0-1.97-2.216c-.618-.3-.432-1.534-.8-2.027s-2.641-.864-2.394-1.292,1.9-.8,2.394-.182,2.58,3.69,3.319,3.936,2.338,0,2.459-.375a1.377,1.377,0,0,0-.678-1.659,2.988,2.988,0,0,1-1.042-2.58c.186-.367-1.171-2.091-.985-2.4s1.231-.121,1.534.307.985,1.6,1.231.86.432-2.027-.363-2.515-1.417-.985-.8-1.171.311-.493-1.106-.8-2.645-.8-2.52-1.227-1.473-2.588-2.951-4.308-2.584-3.315-2.4-3.561,1.966,2.329,2.458,2.762,3.444,3.876,3.811,4.3.311.674,1.106.674.925.868,1.6.246.921-.739.8-1.659a3.466,3.466,0,0,1,.549-1.966s.925-.182-1.845-2.148-2.394-3.137-3.133-3.137-2.212.121-2.7-.246a26.144,26.144,0,0,1-2.705-1.724c-.065-.242.121-2.644-1.784-2.023s-2.887.3-2.77-1.231.925-3.2,1.3-3.323c.133-.044.331-.145.525-.234h0c.331-.153.638-.262.521.053-.186.488-1.292,1.227-1.357,2.027s-.246,2.334.129,2.463a3.928,3.928,0,0,0,2.148-.868c.492-.428,1.106-.549,1.413.19a4.559,4.559,0,0,0,2.4,2.826,25.323,25.323,0,0,1,3.383,1.413,1.787,1.787,0,0,0,1.534.618c.925,0,.493,1.167.985,1.167a1.067,1.067,0,0,0,.86-1.231,5.531,5.531,0,0,0-2.091-3.072,11.747,11.747,0,0,1-2.891-3.008c-.061-.311.375-1.478.375-1.114a1.778,1.778,0,0,0,.61,1.72c.735.492,1.906,1.853,2.152,1.853s1.106.3.985-.311-1.724-3.076-1.724-3.565-.161-2.378-.242-2.951a5.872,5.872,0,0,1,.9-2.79,5.665,5.665,0,0,0,.751-1.373,3.846,3.846,0,0,0,.234-.759c.085-.489-1.474-.9-1.227-1.635s-.985-1.72-.654-2.051,1.143.162,1.635-.331,1.066-2.62,1.558-2.212,1.231.085,1.724-.246,1.72-1.227,1.474-1.966.985-2.293,1.312-1.554.9,1.474-.081,2.459-2.378,1.966-2.951,3.2-1.478,2.128-.9,2.289,1.8.246,1.227,1.155-1.066.161-1.639.489a2.736,2.736,0,0,0-.961,1.284c-.093.295-.076.537.141.6.573.162,1.97-.331,2.047.085s-1.147,1.635-1.308,1.881.654,1.724.816,2.212.9,1.393.331,2.217-1.639.981-1.393,1.8.246.9,1.393,1.635,1.066,1.639,1.72,1.639a1.048,1.048,0,0,0,1.07-.739c0-.246.077.331.569.9s1.066.408,1.066,1.393.085.739.577,1.231.323.735.246,1.227a1.242,1.242,0,0,0,.246.9s.489.493.162.824l-.065.068c.053-.016.759-.529,1.292.012a1.883,1.883,0,0,1,.279.359h0a1.9,1.9,0,0,1-.279,2.427c-.9.82-2.539,2.459-2.539,3.2a5.175,5.175,0,0,1-.493,2.459,9.857,9.857,0,0,0-.985,2.871c0,.654.412,3.605.9,3.69s1.393-1.231,1.308-2.459,1.07-3.856,1.724-5,4.51-5.741,5.083-6.4c.529-.606-.2-.3.073-1.6h0a3.278,3.278,0,0,1,.085-.363,15.466,15.466,0,0,1,3.282-5c.339-.295.589-1.651.658-3.2a13.461,13.461,0,0,0-.335-4.1c-.654-2.212-2.289-3.278-2.782-4.34a34.652,34.652,0,0,1-1.558-5.826c0-.569-1.316-2.128-1.885-2.867s-.9-4.51-.412-4.51a1.014,1.014,0,0,1,.606.178,1.14,1.14,0,0,1,.375.973c0,.9-.981,1.308-.076,2.54s3.852,3.686,4.752,3.856a9.119,9.119,0,0,1,3.278,1.227,3.013,3.013,0,0,1,.654,2.378c-.162.735-1.227,1.966-.654,2.212s2.62-.577,2.705-1.558a5.911,5.911,0,0,1,2.051-4.1c1.554-1.227,4.591-3.771,4.183-4.179s-1.316-1.07-.331-1.639a7.915,7.915,0,0,0,2.951-5.334c.162-2.374.408-2.951.9-3.44a9.215,9.215,0,0,0,1.151-4.59c0-1.8,1.146-2.3-.577-2.786s-3.771-.166-2.786-.985a9.118,9.118,0,0,1,.816-.593c.731-.493,1.377-.868,1.316-1.292-.081-.573.246-2.128.408-1.72s-.242,1.886.577,1.886,2.047-.985,2.539-.9a16.015,16.015,0,0,0,3.193.9c1.316.081,1.07-.985,2.79-1.478s5.495-1.72,6.968-1.72,1.147-.82,2.624-.82,2.047-1.151,2.867-1.228a8.557,8.557,0,0,0,3.44-.739c1.643-.739,5.656-2.544,5.826-2.871s.323-1.062-.493-.739-1.151,1.312-2.051,1.312-.9-.327-1.478-.493-.408.824-1.474.9-1.885,1.232-2.62,1.316-2.212.246-2.051-.166,2.128-1.393,2.544-1.72,1.72.162,1.8-.246-.735-1.966-1.72-1.066-2.539,2.051-3.69,2.051-5.9-.17-6.718.408a11.808,11.808,0,0,1-5.41.985,2.768,2.768,0,0,0-2.705,1.143c-.411.662-1.72,1.889-1.8,1.231s1.639-2.374,2.79-3.359l.089-.073-.662-1.074-.133-1.389.141,1.389.658,1.05h.02c1.4-1.114,7.857-4.837,8.975-4.99,1.159-.154,6.569-.327,8.3-.658.852-.153,3.852-.589,6.743-.961l.02-.024,6.109-.808a2.71,2.71,0,0,0,1.554-1.97c.154-.9-.569-1.227-.416-2.059.153-.811,0-2.782,1.227-2.366s.5,1.643.5,2.213-1.639,2.54-.5,2.628a4.9,4.9,0,0,0,2.649-.876c.392-.2.787-.44,1.2-.678,1.4-.832,3.614-2.8,4.357-3.044.723-.242,1.381-.48,1.381.089s-.569,3.436-.154,3.436c.392,0,3.258-1.881,4.506-2.035,1.227-.177,4.663-1.074,4.905-1.163.263-.085,1.555-3.194.743-4.421s-2.451-3.609-3.02-3.282c-.59.327-.5.5,0,.985.48.5,1.554,1.139,1.708,2.055.174.9.658,1.712-.089,2.124a13.5,13.5,0,0,1-3.262,1.469c-.59,0-2.536-.153-2.951-.723-.42-.594-1.227-2.871-1.974-3.371-.743-.48-1.312-1.643-.981-1.8.327-.174,1.07-2.867-.811-3.436-1.906-.589-4.183-.678-3.787-2.144a7.107,7.107,0,0,1,2.3-3.286,8.47,8.47,0,0,0,2.54-1.377c.658-.658,2.059-2.059.5-1.886-1.554.153-3.371.069-2.539-3.367a3.465,3.465,0,0,1,.105-.452h.008a25.659,25.659,0,0,1,1.078-3.141c1.05-2.54,2.374-4.877,2.984-5.261.9-.573,2.459-2.3,2.459-3.117s.654-.816,1.227-1.062.985-2.051.654-2.951,2.87-4.017,3.359-3.771a4.876,4.876,0,0,1,1.4,2.212c.246.739.573.9,1.724-.331a8.55,8.55,0,0,1,3.605-2.128c.82-.246-.165-1.07,1.389-1.393s1.97.246,3.036-.739,1.885-2.378,2.544-5.083.981-4.26,1.881-4.344,1.147.408,1.147,1.312-.246,1.554.577,1.966,1.966,1.393,2.62,1.147.085-.9.085-2.051,1.066-2.951,1.474-2.459,0,1.478.492,1.312a25.519,25.519,0,0,1,2.544-1.312c.569-.077.981,0,1.474.824s.985,1.8,2.212.981,2.047-1.474,2.217-2.374.654-2.382.981-1.559.492,2.374,1.393,1.635.408-2.127,1.558-2.374a8.048,8.048,0,0,1,3.113-.493c1.231.162,2.213.085,2.79-.9S1055.11,433.515,1054.456,433.349Z" transform="translate(-240.075 -339)" fill="#032c4f"/></svg>